PathFileType	4	(X/Y/Z)	4_coords_data.trc
DataRate	CameraRate	NumFrames	NumMarkers	Units	OrigDataRate	OrigDataStartFrame	OrigNumFrames
30.0	30.0	8	21	m	30.0	48	57
Frame#	Time	THUMB_TIP	THUMB_IP	THUMB_MCP	THUMB_CMC	INDEX_TIP	INDEX_DIP	INDEX_PIP	INDEX_MCP	MIDDLE_TIP	MIDDLE_DIP	MIDDLE_PIP	MIDDLE_MCP	RING_TIP	RING_DIP	RING_PIP	RING_MCP	PINKY_TIP	PINKY_DIP	PINKY_PIP	PINKY_MCP	WRIST
X1	Y1	Z1	X2	Y2	Z2	X3	Y3	Z3	X4	Y4	Z4	X5	Y5	Z5	X6	Y6	Z6	X7	Y7	Z7	X8	Y8	Z8	X9	Y9	Z9	X10	Y10	Z10	X11	Y11	Z11	X12	Y12	Z12	X13	Y13	Z13	X14	Y14	Z14	X15	Y15	Z15	X16	Y16	Z16	X17	Y17	Z17	X18	Y18	Z18	X19	Y19	Z19	X20	Y20	Z20	X21	Y21	Z21
47	1.5666666666666667	-0.007192699909210205	-0.09309919738769531	1.090199951171875	-0.026966800689697267	-0.07591809844970702	1.1021500244140625	-0.052851600646972655	-0.06467160034179688	1.118300048828125	-0.06589209747314453	-0.030134199142456054	1.1271099853515625	0.002803760051727295	-0.07136100006103516	1.0056500244140625	-0.016446399688720702	-0.0670707015991211	1.018719970703125	-0.03627059936523438	-0.06170330047607422	1.034530029296875	-0.0606953010559082	-0.051157699584960935	1.065780029296875	0.01384510040283203	-0.03353030014038086	0.9873369750976563	-0.005955329895019531	-0.032145198822021485	1.0048300170898437	-0.030250499725341797	-0.030103099822998046	1.0251300048828125	-0.05885480117797852	-0.026454700469970702	1.0573299560546876	0.013378199577331542	0.00046712899208068803	0.989364990234375	-0.006519780158996582	0.000506101012229919	1.005530029296875	-0.029914600372314453	-0.000337763994932174	1.0243299560546875	-0.053886398315429684	-0.0028380799293518063	1.058300048828125	0.0029133999347686758	0.039330600738525394	1.019260009765625	-0.014932700157165527	0.0367672004699707	1.0289599609375	-0.03243149948120117	0.03233829879760742	1.0400699462890626	-0.04906729888916016	0.019805599212646484	1.0640400390625	-0.09824749755859374	-0.000144841998815536	1.1394300537109374
48	1.6	-0.007763329982757568	-0.09351280212402344	1.089949951171875	-0.027363899230957032	-0.0762072982788086	1.1018599853515625	-0.05314780044555664	-0.0648115005493164	1.118010009765625	-0.06599710083007812	-0.030225900650024413	1.126739990234375	0.002304739952087402	-0.0717074966430664	1.0051300048828125	-0.016819799423217773	-0.06728250122070313	1.0183800048828124	-0.036527400970458986	-0.06183060073852539	1.03431005859375	-0.061006099700927734	-0.051195598602294924	1.0656600341796876	0.013141300201416016	-0.03380509948730469	0.9865780029296874	-0.00632843017578125	-0.032402099609375	1.0044299926757811	-0.030396699905395508	-0.030306400299072264	1.02502001953125	-0.05887919998168945	-0.026530099868774415	1.056699951171875	0.012685999870300294	0.000266961008310318	0.988375	-0.0069666199684143065	0.000330541998147964	1.0048499755859375	-0.030174200057983398	-0.000489021986722946	1.0241099853515625	-0.054016399383544925	-0.002903199911117553	1.0581300048828124	0.00253639006614685	0.03943790054321289	1.0186400146484376	-0.015272600173950195	0.03679259872436524	1.02847998046875	-0.03262779998779297	0.03232809829711914	1.039699951171875	-0.04917050170898438	0.019755699157714843	1.0637900390625	-0.09823909759521485	-0.00027904599905014004	1.1388399658203125
49	1.6333333333333333	-0.008576519966125488	-0.09418180084228515	1.08931005859375	-0.027825300216674804	-0.07658779907226562	1.1012900390625	-0.05349549865722656	-0.06486900329589844	1.1176300048828125	-0.0662406005859375	-0.030257099151611327	1.1264599609375	0.002643610000610351	-0.0715895004272461	1.0051699829101564	-0.016473100662231444	-0.06718759918212891	1.0183800048828124	-0.0362776985168457	-0.06177700042724609	1.03425	-0.06110419845581055	-0.05115169906616211	1.065510009765625	0.013150199890136719	-0.03377199935913086	0.9863170166015625	-0.006272900104522705	-0.03241630172729492	1.004219970703125	-0.030303400039672853	-0.03029240036010742	1.0248699951171876	-0.05902959823608398	-0.02646969985961914	1.05656005859375	0.012394700050354004	0.00047194901108741705	0.9878489990234375	-0.007160799980163574	0.000494884997606277	1.0045399780273438	-0.03024099922180176	-0.000361826002597808	1.02375	-0.05402170181274414	-0.002811670064926147	1.0576600341796876	0.002301239967346191	0.03977890014648437	1.01827001953125	-0.015420499801635743	0.03707630157470703	1.0280799560546876	-0.03274850082397461	0.032527301788330076	1.0393199462890625	-0.04922639846801758	0.019850400924682616	1.06343994140625	-0.09830680084228516	-0.00013627800345420801	1.1383599853515625
50	1.6666666666666667	-0.008933090209960937	-0.09442790222167968	1.08902001953125	-0.028060100555419923	-0.07661019897460937	1.101030029296875	-0.05362969970703125	-0.06478199768066406	1.1173900146484375	-0.06623979949951173	-0.030060699462890625	1.126239990234375	0.002267489910125732	-0.07148410034179688	1.00447998046875	-0.016722299575805663	-0.06702519989013672	1.0178699951171875	-0.03633679962158203	-0.061617198944091796	1.0338699951171875	-0.061103099822998046	-0.050967899322509766	1.064969970703125	0.012503700256347656	-0.03352899932861328	0.9853510131835937	-0.006648069858551026	-0.03222169876098633	1.0036500244140625	-0.030464300155639647	-0.030147600173950195	1.0246099853515624	-0.05912379837036133	-0.026317300796508788	1.0563299560546875	0.011904399871826172	0.0008677639961242671	0.987302978515625	-0.007568840026855469	0.0008097710013389581	1.0039099731445313	-0.030503499984741212	-9.072709828615101e-05	1.0233400268554687	-0.05409049987792969	-0.002679389953613281	1.0574000244140624	0.0019491699934005731	0.04015090179443359	1.0176099853515626	-0.015748499870300293	0.03734329986572266	1.0276400146484375	-0.03302410125732422	0.03272790145874024	1.038969970703125	-0.04924860000610352	0.019990800857543945	1.0631500244140626	-0.09844010162353516	0.00019493600726127602	1.138699951171875
51	1.7	-0.009617110252380372	-0.09498970031738281	1.0883499755859376	-0.028350400924682616	-0.0768291015625	1.1003599853515624	-0.05357789993286133	-0.06451909637451173	1.1170400390625	-0.06615809631347656	-0.02968950080871582	1.1259599609375	0.001435680031776428	-0.07158599853515625	1.0034199829101562	-0.017291200637817382	-0.06703050231933594	1.01727001953125	-0.036630298614501955	-0.06152719879150391	1.0336300048828124	-0.06129690170288086	-0.0507411003112793	1.065	0.011546199798583984	-0.03340940093994141	0.9841599731445313	-0.0072870001792907715	-0.03212329864501953	1.002780029296875	-0.030743799209594726	-0.030032400131225587	1.0241500244140624	-0.05930599975585937	-0.026096200942993163	1.05625	0.010985899925231933	0.0008467959761619561	0.9858770141601563	-0.00812020969390869	0.000811810970306396	1.0030700073242187	-0.030794500350952148	-6.9933101534843e-05	1.0227999877929688	-0.05417549896240234	-0.002454610109329223	1.056949951171875	0.001344320058822631	0.04035960006713867	1.016489990234375	-0.016176200866699218	0.037529300689697266	1.0268900146484374	-0.03329249954223633	0.03286859893798828	1.0384000244140625	-0.04934560012817383	0.020242700576782225	1.062800048828125	-0.09826450347900391	0.00033614599704742405	1.1384200439453125
52	1.7333333333333334	-0.010012399673461915	-0.09521600341796875	1.0876600341796876	-0.02849880027770996	-0.07681510162353515	1.09981005859375	-0.05359389877319336	-0.06443779754638672	1.1164300537109375	-0.06611489868164062	-0.02952939987182617	1.1255999755859376	0.000644053995609283	-0.07157399749755859	1.00227001953125	-0.017790800094604493	-0.0669374008178711	1.016510009765625	-0.03687779998779297	-0.06131940078735352	1.0331400146484375	-0.061330001831054685	-0.050516300201416016	1.064550048828125	0.010760899543762206	-0.03322209930419922	0.983072021484375	-0.007826149940490723	-0.03188660049438476	1.0020499877929687	-0.030994699478149413	-0.029806299209594725	1.0236699829101563	-0.05927899932861328	-0.02585689926147461	1.05547998046875	0.010402799606323242	0.0010689599514007559	0.9849249877929688	-0.008507599830627441	0.001006829977035522	1.00227001953125	-0.030996299743652343	0.00010622999817132901	1.0223900146484375	-0.05427859878540039	-0.002235399961471557	1.0566700439453125	0.0008647019863128661	0.040511398315429686	1.01552001953125	-0.01659630012512207	0.03761270141601562	1.0261700439453125	-0.033588600158691403	0.03297050094604492	1.03793994140625	-0.04942890167236328	0.02044099998474121	1.062300048828125	-0.09811620330810547	0.000511435985565185	1.1380799560546875
53	1.7666666666666666	-0.009652170181274414	-0.09474870300292969	1.0872900390625	-0.028184900283813475	-0.0764657974243164	1.09943994140625	-0.053438899993896484	-0.06419200134277343	1.1161300048828124	-0.06595809936523438	-0.029328699111938476	1.1252900390625	0.000948795020580291	-0.0710238037109375	1.0019400024414062	-0.017553400039672852	-0.06645559692382813	1.0161699829101563	-0.03670100021362305	-0.060929698944091795	1.0328399658203125	-0.06124919891357422	-0.05025949859619141	1.0643800048828125	0.010876399993896484	-0.032768501281738284	0.9827490234375	-0.007680389881134033	-0.03151129913330078	1.001760009765625	-0.030848100662231447	-0.029501699447631837	1.0233200073242188	-0.059207599639892576	-0.02565530014038086	1.0551500244140626	0.01047350025177002	0.0014697200059890741	0.9845999755859375	-0.008430069923400878	0.00138152003288269	1.0018699951171874	-0.03091749954223633	0.000442600011825561	1.021989990234375	-0.05426390075683594	-0.001980299949645996	1.056300048828125	0.0008216390013694761	0.040762100219726566	1.0150800170898437	-0.016642799377441408	0.03790840148925781	1.02572998046875	-0.03362350082397461	0.03324689865112305	1.037530029296875	-0.049460399627685545	0.020668600082397463	1.062	-0.09793289947509766	0.000708137989044189	1.1379000244140625
54	1.8	-0.009440469741821288	-0.09450839996337891	1.0871500244140626	-0.02800760078430176	-0.07618080139160156	1.099260009765625	-0.05302999877929687	-0.06396620178222656	1.115719970703125	-0.06575659942626953	-0.029049800872802733	1.1251199951171875	0.001097669959068298	-0.0707780990600586	1.0015399780273437	-0.017319799423217774	-0.06621700286865234	1.0157899780273438	-0.03642900085449219	-0.06068450164794922	1.03252001953125	-0.060828899383544924	-0.050010299682617186	1.063719970703125	0.010863400459289551	-0.03246860122680664	0.982177978515625	-0.007546579837799073	-0.031220300674438477	1.0012899780273437	-0.03058839988708496	-0.029235700607299804	1.0229600219726562	-0.058910999298095706	-0.025379499435424804	1.05497998046875	0.010867500305175781	0.001738379955291748	0.9843989868164063	-0.008072090148925782	0.0016312600374221802	1.0016500244140625	-0.03058180046081543	0.000675181984901428	1.02177001953125	-0.05401160049438476	-0.00172639000415802	1.055969970703125	0.001237879991531372	0.04100249862670898	1.0149500122070312	-0.016252500534057617	0.03814879989624023	1.02556005859375	-0.0332848014831543	0.03352349853515625	1.037300048828125	-0.04916730117797852	0.02097019958496094	1.061780029296875	-0.09776599884033203	0.0009271699786186211	1.1376400146484376
